<mxfile host="app.diagrams.net" modified="2023-09-18T18:10:32.055Z" agent="Mozilla/5.0 (Windows NT 10.0; Win64; x64) AppleWebKit/537.36 (KHTML, like Gecko) Chrome/116.0.0.0 Safari/537.36" version="21.6.9" etag="0n19_V2tORrhJQSCCvVR" type="github">
  <diagram name="Page-1" id="HwRMrMqPMDBqlKkw_cUY">
    <mxGraphModel>
      <root>
        <mxCell id="0" />
        <mxCell id="1" parent="0" />
      </root>
    </mxGraphModel>
  </diagram>
</mxfile>
